<?xml version="1.0" encoding="UTF-8" standalone="no"?>
<!-- Generator: Adobe Illustrator 18.0.0, SVG Export Plug-In . SVG Version: 6.00 Build 0)  -->

<svg
   xmlns:dc="http://purl.org/dc/elements/1.1/"
   xmlns:cc="http://creativecommons.org/ns#"
   xmlns:rdf="http://www.w3.org/1999/02/22-rdf-syntax-ns#"
   xmlns:svg="http://www.w3.org/2000/svg"
   xmlns="http://www.w3.org/2000/svg"
   xmlns:sodipodi="http://sodipodi.sourceforge.net/DTD/sodipodi-0.dtd"
   xmlns:inkscape="http://www.inkscape.org/namespaces/inkscape"
   version="1.1"
   id="Capa_1"
   x="0px"
   y="0px"
   viewBox="0 0 330 330"
   style="enable-background:new 0 0 330 330;"
   xml:space="preserve"
   sodipodi:docname="copy-dark_2.svg"
   inkscape:version="0.92.3 (2405546, 2018-03-11)"><metadata
   id="metadata47"><rdf:RDF><cc:Work
       rdf:about=""><dc:format>image/svg+xml</dc:format><dc:type
         rdf:resource="http://purl.org/dc/dcmitype/StillImage" /><dc:title></dc:title></cc:Work></rdf:RDF></metadata><defs
   id="defs45" /><sodipodi:namedview
   pagecolor="#ffffff"
   bordercolor="#666666"
   borderopacity="1"
   objecttolerance="10"
   gridtolerance="10"
   guidetolerance="10"
   inkscape:pageopacity="0"
   inkscape:pageshadow="2"
   inkscape:window-width="1680"
   inkscape:window-height="997"
   id="namedview43"
   showgrid="false"
   inkscape:zoom="0.71515152"
   inkscape:cx="1.3983051"
   inkscape:cy="165"
   inkscape:window-x="0"
   inkscape:window-y="25"
   inkscape:window-maximized="1"
   inkscape:current-layer="Capa_1" />
<g
   id="g10"
   style="fill:#777777;fill-opacity:1">
	<path
   d="M35,270h45v45c0,8.284,6.716,15,15,15h200c8.284,0,15-6.716,15-15V75c0-8.284-6.716-15-15-15h-45V15   c0-8.284-6.716-15-15-15H35c-8.284,0-15,6.716-15,15v240C20,263.284,26.716,270,35,270z M280,300H110V90h170V300z M50,30h170v30H95   c-8.284,0-15,6.716-15,15v165H50V30z"
   id="path2"
   style="fill:#777777;fill-opacity:1" />
	<path
   d="M155,120c-8.284,0-15,6.716-15,15s6.716,15,15,15h80c8.284,0,15-6.716,15-15s-6.716-15-15-15H155z"
   id="path4"
   style="fill:#777777;fill-opacity:1" />
	<path
   d="M235,180h-80c-8.284,0-15,6.716-15,15s6.716,15,15,15h80c8.284,0,15-6.716,15-15S243.284,180,235,180z"
   id="path6"
   style="fill:#777777;fill-opacity:1" />
	<path
   d="M235,240h-80c-8.284,0-15,6.716-15,15c0,8.284,6.716,15,15,15h80c8.284,0,15-6.716,15-15C250,246.716,243.284,240,235,240z   "
   id="path8"
   style="fill:#777777;fill-opacity:1" />
</g>
<g
   id="g12"
   style="fill:#777777;fill-opacity:1">
</g>
<g
   id="g14"
   style="fill:#777777;fill-opacity:1">
</g>
<g
   id="g16"
   style="fill:#777777;fill-opacity:1">
</g>
<g
   id="g18"
   style="fill:#777777;fill-opacity:1">
</g>
<g
   id="g20"
   style="fill:#777777;fill-opacity:1">
</g>
<g
   id="g22"
   style="fill:#777777;fill-opacity:1">
</g>
<g
   id="g24"
   style="fill:#777777;fill-opacity:1">
</g>
<g
   id="g26"
   style="fill:#777777;fill-opacity:1">
</g>
<g
   id="g28"
   style="fill:#777777;fill-opacity:1">
</g>
<g
   id="g30"
   style="fill:#777777;fill-opacity:1">
</g>
<g
   id="g32"
   style="fill:#777777;fill-opacity:1">
</g>
<g
   id="g34"
   style="fill:#777777;fill-opacity:1">
</g>
<g
   id="g36"
   style="fill:#777777;fill-opacity:1">
</g>
<g
   id="g38"
   style="fill:#777777;fill-opacity:1">
</g>
<g
   id="g40"
   style="fill:#777777;fill-opacity:1">
</g>
</svg>