<?xml version="1.0" encoding="UTF-8" standalone="no"?>
<!-- Generator: Adobe Illustrator 18.0.0, SVG Export Plug-In . SVG Version: 6.00 Build 0)  -->

<svg
   xmlns:dc="http://purl.org/dc/elements/1.1/"
   xmlns:cc="http://creativecommons.org/ns#"
   xmlns:rdf="http://www.w3.org/1999/02/22-rdf-syntax-ns#"
   xmlns:svg="http://www.w3.org/2000/svg"
   xmlns="http://www.w3.org/2000/svg"
   xmlns:sodipodi="http://sodipodi.sourceforge.net/DTD/sodipodi-0.dtd"
   xmlns:inkscape="http://www.inkscape.org/namespaces/inkscape"
   version="1.1"
   id="Capa_1"
   x="0px"
   y="0px"
   viewBox="0 0 283.722 283.722"
   style="enable-background:new 0 0 283.722 283.722;"
   xml:space="preserve"
   sodipodi:docname="disabled-connection-svgrepo-com.svg"
   inkscape:version="0.92.3 (2405546, 2018-03-11)"><metadata
   id="metadata1740"><rdf:RDF><cc:Work
       rdf:about=""><dc:format>image/svg+xml</dc:format><dc:type
         rdf:resource="http://purl.org/dc/dcmitype/StillImage" /></cc:Work></rdf:RDF></metadata><defs
   id="defs1738" /><sodipodi:namedview
   pagecolor="#ffffff"
   bordercolor="#666666"
   borderopacity="1"
   objecttolerance="10"
   gridtolerance="10"
   guidetolerance="10"
   inkscape:pageopacity="0"
   inkscape:pageshadow="2"
   inkscape:window-width="1680"
   inkscape:window-height="997"
   id="namedview1736"
   showgrid="false"
   inkscape:zoom="0.83180019"
   inkscape:cx="141.86099"
   inkscape:cy="141.86099"
   inkscape:window-x="0"
   inkscape:window-y="25"
   inkscape:window-maximized="1"
   inkscape:current-layer="Capa_1" />
<g
   id="g1703"
   style="fill:#be0000;fill-opacity:1">
	<path
   d="M184.721,128.156c4.398-14.805,7.516-29.864,8.885-43.783c0.06-0.607-0.276-1.159-0.835-1.373l-70.484-26.932   c-0.152-0.058-0.312-0.088-0.475-0.088c-0.163,0-0.322,0.03-0.474,0.088L50.851,83c-0.551,0.21-0.894,0.775-0.835,1.373   c2.922,29.705,13.73,64.62,28.206,91.12c14.162,25.923,30.457,41.4,43.589,41.4c8.439,0,18.183-6.4,27.828-17.846l-16.375-16.375   c-14.645-14.645-14.645-38.389,0-53.033C147.396,115.509,169.996,115.017,184.721,128.156z"
   id="path1697"
   style="fill:#be0000;fill-opacity:1" />
	<path
   d="M121.812,236.893c-46.932,0-85.544-87.976-91.7-150.562c-0.94-9.56,4.627-18.585,13.601-22.013l70.486-26.933   c2.451-0.937,5.032-1.405,7.613-1.405c2.581,0,5.162,0.468,7.614,1.405l70.484,26.932c8.987,3.434,14.542,12.439,13.6,22.013   c-1.773,18.028-6.244,38.161-12.826,57.693l11.068,11.068l17.865-17.866c6.907-20.991,11.737-42.285,13.845-61.972   c1.322-12.347-5.53-24.102-16.934-29.017l-93.512-40.3c-7.152-3.082-15.257-3.082-22.409,0l-93.512,40.3   C5.705,51.147-1.159,62.922,0.162,75.255c8.765,81.851,64.476,191.512,121.65,191.512c0.356,0,0.712-0.023,1.068-0.032   c-1.932-10.793,0.888-22.262,8.456-31.06C128.205,236.465,125.029,236.893,121.812,236.893z"
   id="path1699"
   style="fill:#be0000;fill-opacity:1" />
	<path
   d="M240.037,208.125c7.327-7.326,30.419-30.419,37.827-37.827c7.81-7.811,7.81-20.475,0-28.285   c-7.811-7.811-20.475-7.811-28.285,0c-7.41,7.41-30.5,30.5-37.827,37.827l-37.827-37.827c-7.81-7.811-20.475-7.811-28.285,0   c-7.811,7.811-7.811,20.475,0,28.285l37.827,37.827c-7.326,7.326-30.419,30.419-37.827,37.827c-7.811,7.811-7.811,20.475,0,28.285   c7.809,7.809,20.474,7.811,28.285,0c7.41-7.41,30.5-30.499,37.827-37.827l37.827,37.827c7.809,7.809,20.474,7.811,28.285,0   c7.81-7.81,7.81-20.475,0-28.285L240.037,208.125z"
   id="path1701"
   style="fill:#be0000;fill-opacity:1" />
</g>
<g
   id="g1705">
</g>
<g
   id="g1707">
</g>
<g
   id="g1709">
</g>
<g
   id="g1711">
</g>
<g
   id="g1713">
</g>
<g
   id="g1715">
</g>
<g
   id="g1717">
</g>
<g
   id="g1719">
</g>
<g
   id="g1721">
</g>
<g
   id="g1723">
</g>
<g
   id="g1725">
</g>
<g
   id="g1727">
</g>
<g
   id="g1729">
</g>
<g
   id="g1731">
</g>
<g
   id="g1733">
</g>
</svg>