<?xml version="1.0" encoding="UTF-8" standalone="no"?>
<!-- Generator: Adobe Illustrator 18.0.0, SVG Export Plug-In . SVG Version: 6.00 Build 0)  -->

<svg
   xmlns:dc="http://purl.org/dc/elements/1.1/"
   xmlns:cc="http://creativecommons.org/ns#"
   xmlns:rdf="http://www.w3.org/1999/02/22-rdf-syntax-ns#"
   xmlns:svg="http://www.w3.org/2000/svg"
   xmlns="http://www.w3.org/2000/svg"
   xmlns:sodipodi="http://sodipodi.sourceforge.net/DTD/sodipodi-0.dtd"
   xmlns:inkscape="http://www.inkscape.org/namespaces/inkscape"
   version="1.1"
   id="Capa_1"
   x="0px"
   y="0px"
   viewBox="0 0 194.818 194.818"
   style="enable-background:new 0 0 194.818 194.818;"
   xml:space="preserve"
   sodipodi:docname="link-dark.svg"
   inkscape:version="0.92.3 (2405546, 2018-03-11)"><metadata
   id="metadata937"><rdf:RDF><cc:Work
       rdf:about=""><dc:format>image/svg+xml</dc:format><dc:type
         rdf:resource="http://purl.org/dc/dcmitype/StillImage" /></cc:Work></rdf:RDF></metadata><defs
   id="defs935" /><sodipodi:namedview
   pagecolor="#ffffff"
   bordercolor="#666666"
   borderopacity="1"
   objecttolerance="10"
   gridtolerance="10"
   guidetolerance="10"
   inkscape:pageopacity="0"
   inkscape:pageshadow="2"
   inkscape:window-width="1680"
   inkscape:window-height="997"
   id="namedview933"
   showgrid="false"
   inkscape:zoom="4.1936578"
   inkscape:cx="97.408997"
   inkscape:cy="97.408997"
   inkscape:window-x="0"
   inkscape:window-y="25"
   inkscape:window-maximized="1"
   inkscape:current-layer="g900" />
<g
   id="g900">
	<path
   d="M185.818,2.161h-57.04c-4.971,0-9,4.029-9,9s4.029,9,9,9h35.312l-86.3,86.3c-3.515,3.515-3.515,9.213,0,12.728   c1.758,1.757,4.061,2.636,6.364,2.636s4.606-0.879,6.364-2.636l86.3-86.3v35.313c0,4.971,4.029,9,9,9s9-4.029,9-9v-57.04   C194.818,6.19,190.789,2.161,185.818,2.161z"
   id="path896"
   style="fill:#777777;fill-opacity:1" />
	<path
   d="M149,77.201c-4.971,0-9,4.029-9,9v88.456H18v-122h93.778c4.971,0,9-4.029,9-9s-4.029-9-9-9H9c-4.971,0-9,4.029-9,9v140   c0,4.971,4.029,9,9,9h140c4.971,0,9-4.029,9-9V86.201C158,81.23,153.971,77.201,149,77.201z"
   id="path898"
   style="fill:#777777;fill-opacity:1" />
</g>
<g
   id="g902">
</g>
<g
   id="g904">
</g>
<g
   id="g906">
</g>
<g
   id="g908">
</g>
<g
   id="g910">
</g>
<g
   id="g912">
</g>
<g
   id="g914">
</g>
<g
   id="g916">
</g>
<g
   id="g918">
</g>
<g
   id="g920">
</g>
<g
   id="g922">
</g>
<g
   id="g924">
</g>
<g
   id="g926">
</g>
<g
   id="g928">
</g>
<g
   id="g930">
</g>
</svg>