<?xml version="1.0" encoding="UTF-8" standalone="no"?>
<svg
   xmlns:dc="http://purl.org/dc/elements/1.1/"
   xmlns:cc="http://creativecommons.org/ns#"
   xmlns:rdf="http://www.w3.org/1999/02/22-rdf-syntax-ns#"
   xmlns:svg="http://www.w3.org/2000/svg"
   xmlns="http://www.w3.org/2000/svg"
   xmlns:sodipodi="http://sodipodi.sourceforge.net/DTD/sodipodi-0.dtd"
   xmlns:inkscape="http://www.inkscape.org/namespaces/inkscape"
   version="1.1"
   viewBox="0 0 452.594 452.594"
   enable-background="new 0 0 452.594 452.594"
   id="svg14"
   sodipodi:docname="statistics-light.svg"
   inkscape:version="0.92.5 (2060ec1f9f, 2020-04-08)">
  <metadata
     id="metadata20">
    <rdf:RDF>
      <cc:Work
         rdf:about="">
        <dc:format>image/svg+xml</dc:format>
        <dc:type
           rdf:resource="http://purl.org/dc/dcmitype/StillImage" />
        <dc:title></dc:title>
      </cc:Work>
    </rdf:RDF>
  </metadata>
  <defs
     id="defs18" />
  <sodipodi:namedview
     pagecolor="#ffffff"
     bordercolor="#666666"
     borderopacity="1"
     objecttolerance="10"
     gridtolerance="10"
     guidetolerance="10"
     inkscape:pageopacity="0"
     inkscape:pageshadow="2"
     inkscape:window-width="1680"
     inkscape:window-height="997"
     id="namedview16"
     showgrid="false"
     inkscape:zoom="0.52143865"
     inkscape:cx="12.465513"
     inkscape:cy="226.297"
     inkscape:window-x="0"
     inkscape:window-y="25"
     inkscape:window-maximized="1"
     inkscape:current-layer="svg14" />
  <g
     id="g12"
     style="fill:#f2f2f2;fill-opacity:1">
    <path
       d="M 430.511,44.654 H 22.082 C 9.906,44.654 0,54.56 0,66.736 V 316.96 c 0,12.176 9.906,22.082 22.082,22.082 h 154.323 l -6.428,48.898 h -27.505 c -5.522,0 -10,4.477 -10,10 0,5.523 4.478,10 10,10 h 167.65 c 5.522,0 10,-4.477 10,-10 0,-5.523 -4.478,-10 -10,-10 h -27.506 l -6.428,-48.898 H 430.51 c 12.177,0 22.083,-9.906 22.083,-22.082 V 66.736 C 452.594,54.56 442.688,44.654 430.511,44.654 Z m -408.429,20 h 408.429 c 1.148,0 2.083,0.934 2.083,2.082 V 278.095 H 20 V 66.736 c 0,-1.148 0.934,-2.082 2.082,-2.082 z M 262.444,387.94 h -72.296 l 6.429,-48.898 h 59.439 z M 430.511,319.042 H 22.082 C 20.934,319.042 20,318.108 20,316.96 v -18.865 h 412.594 v 18.865 c 0,1.148 -0.935,2.082 -2.083,2.082 z"
       id="path2"
       inkscape:connector-curvature="0"
       style="fill:#f2f2f2;fill-opacity:1" />
    <path
       d="m 86.297,259.042 h 40 c 5.522,0 10,-4.477 10,-10 v -62 c 0,-5.523 -4.478,-10 -10,-10 h -40 c -5.522,0 -10,4.477 -10,10 v 62 c 0,5.523 4.477,10 10,10 z m 10,-62 h 20 v 42 h -20 z"
       id="path4"
       inkscape:connector-curvature="0"
       style="fill:#f2f2f2;fill-opacity:1" />
    <path
       d="m 326.297,258.555 h 40 c 5.522,0 10,-4.477 10,-10 v -29.55 c 0,-5.523 -4.478,-10 -10,-10 h -40 c -5.522,0 -10,4.477 -10,10 v 29.55 c 0,5.523 4.477,10 10,10 z m 10,-29.549 h 20 v 9.55 h -20 z"
       id="path6"
       inkscape:connector-curvature="0"
       style="fill:#f2f2f2;fill-opacity:1" />
    <path
       d="m 246.297,259.042 h 40 c 5.522,0 10,-4.477 10,-10 V 160.62 c 0,-5.523 -4.478,-10 -10,-10 h -40 c -5.522,0 -10,4.477 -10,10 v 88.422 c 0,5.523 4.477,10 10,10 z m 10,-88.422 h 20 v 68.422 h -20 z"
       id="path8"
       inkscape:connector-curvature="0"
       style="fill:#f2f2f2;fill-opacity:1" />
    <path
       d="m 166.297,259.042 h 40 c 5.522,0 10,-4.477 10,-10 V 130.245 c 0,-5.523 -4.478,-10 -10,-10 h -40 c -5.522,0 -10,4.477 -10,10 v 118.797 c 0,5.523 4.477,10 10,10 z m 10,-118.797 h 20 v 98.797 h -20 z"
       id="path10"
       inkscape:connector-curvature="0"
       style="fill:#f2f2f2;fill-opacity:1" />
  </g>
</svg>
